<svg width="20" height="10" viewBox="0 0 20 10" fill="none" xmlns="http://www.w3.org/2000/svg">
<path d="M14.7555 9.75585C14.5983 9.90765 14.3878 9.99164 14.1693 9.98974C13.9508 9.98784 13.7418 9.9002 13.5873 9.7457C13.4328 9.59119 13.3452 9.38218 13.3433 9.16368C13.3414 8.94518 13.4254 8.73468 13.5772 8.57751L16.3213 5.83335H1.66634C1.44533 5.83335 1.23337 5.74555 1.07709 5.58927C0.920805 5.43299 0.833008 5.22103 0.833008 5.00001C0.833008 4.779 0.920805 4.56704 1.07709 4.41076C1.23337 4.25448 1.44533 4.16668 1.66634 4.16668H16.3213L13.5772 1.42251C13.4254 1.26535 13.3414 1.05484 13.3433 0.836346C13.3452 0.617849 13.4328 0.408839 13.5873 0.254332C13.7418 0.0998251 13.9508 0.0121841 14.1693 0.0102854C14.3878 0.00838673 14.5983 0.0923824 14.7555 0.244181L18.9222 4.41085C19.0784 4.56712 19.1662 4.77904 19.1662 5.00001C19.1662 5.22098 19.0784 5.43291 18.9222 5.58918L14.7555 9.75585Z" fill="#0D6EFD"/>
</svg>
